<svg id="Capa_1" data-name="Capa 1" xmlns="http://www.w3.org/2000/svg" xmlns:xlink="http://www.w3.org/1999/xlink" viewBox="0 0 1080 254.11"><defs><style>.cls-1{fill:url(#Degradado_sin_nombre_6);}.cls-2{fill:url(#Degradado_sin_nombre_7);}</style><linearGradient id="Degradado_sin_nombre_6" x1="133.47" y1="35.2" x2="133.47" y2="257.72" gradientUnits="userSpaceOnUse"><stop offset="0" stop-color="#6e12ff"/><stop offset="0.8" stop-color="#00ceff"/></linearGradient><linearGradient id="Degradado_sin_nombre_7" x1="242.75" y1="234.88" x2="242.75" y2="16.28" gradientUnits="userSpaceOnUse"><stop offset="0.18" stop-color="#6e12ff"/><stop offset="0.93" stop-color="#00ceff"/></linearGradient></defs><polygon class="cls-1" points="187.8 122.12 187.8 208.68 79.15 208.68 79.15 35.56 86.95 35.56 187.8 122.12"/><polygon class="cls-2" points="187.8 122.12 187.8 35.56 297.7 35.56 297.7 208.84 288.64 208.68 187.8 122.12"/><path d="M453.4,208.61V135.68q0-20-6-28t-20.19-8q-7.62,0-15.92,4.57a35.25,35.25,0,0,0-12.76,11.24v93.18H376.25V83.23h15.22l7,16.16q11-18.49,35.94-18.5,41.21,0,41.21,50.11v77.61Z"/><path d="M518,208.61V102H500.82V83.23h39.45V208.61ZM530.2,35.82a13.36,13.36,0,0,1,9.78,4,13.17,13.17,0,0,1,4,9.66,13.76,13.76,0,1,1-23.53-9.72A13.26,13.26,0,0,1,530.2,35.82Z"/><path d="M567.43,201.12l7.84-21.07q18.62,12.18,30,12.17,20.61,0,20.61-17.32,0-12.4-19.91-21.31-15.33-7-20.66-10.65a46.27,46.27,0,0,1-9.25-8.25,33.11,33.11,0,0,1-5.85-9.84,31.84,31.84,0,0,1-1.93-11.18q0-15.45,11.24-24.12t29.38-8.66q13.7,0,34.54,8.66l-6.33,20.61q-13.22-10.53-26.57-10.54a23,23,0,0,0-13.4,3.75q-5.45,3.75-5.45,9.48,0,12.06,13.7,18.26l15.92,7.26q14.64,6.67,21.31,15.22T649.26,175q0,16.85-11.82,26.4T604.66,211A74.59,74.59,0,0,1,567.43,201.12Z"/><path d="M693.75,83.23v80q0,29,25.17,29a34.54,34.54,0,0,0,20.13-6.32q9.13-6.32,12.06-14.63v-88h22.24V208.61H751.11V191.29q-3.75,7.36-15,13.52T714,211q-20.61,0-31.55-11.83t-11-33.6V83.23Z"/><path d="M948.84,208.61V129.24q0-29.61-25.63-29.62a25.64,25.64,0,0,0-15.11,5q-7,5-9.6,11.29v92.72H876.26V119.52q0-9.24-7-14.57t-18.44-5.33q-6.68,0-14.23,5.15t-10.71,11.36v92.48H803.68V83.23h14.51l7.38,14.52q12.87-16.86,32.19-16.86,26.93,0,37.7,16.74,3.75-7.14,13.93-11.94a48.66,48.66,0,0,1,21-4.8q19.42,0,30.08,11.53t10.66,32.37v83.82Z"/><path d="M980.39,197.43a10.24,10.24,0,1,1,3,7.23A9.86,9.86,0,0,1,980.39,197.43Zm2.47,0a7.75,7.75,0,1,0,2.27-5.49A7.48,7.48,0,0,0,982.86,197.43ZM993,203.15l-2.76-4.69h-1v4.69h-2.35V191.46h3.2q4.3,0,4.31,3.41a3.35,3.35,0,0,1-1.93,3.14l3.1,5.14Zm-2.87-9.57h-.85v2.86a14.61,14.61,0,0,0,1.86-.08,1,1,0,0,0,.71-.39,1.69,1.69,0,0,0,.24-1C992,194,991.38,193.58,990.08,193.58Z"/></svg>